<svg width="264" height="53" viewBox="0 0 264 53" fill="none" xmlns="http://www.w3.org/2000/svg">
<g class="logo-icon">
<path d="M55.0459 5.27545L37.9362 0L22.6094 10.2762L42.1786 49.8516C42.1786 49.8516 60.3804 49.2976 69.822 36.1184L55.0459 5.27545ZM45.1889 44.5809L29.1807 11.8011L38.893 5.41752L51.6342 9.44278L64.0907 34.7167C64.0907 34.7167 59.2883 42.4925 45.1889 44.5762V44.5809Z" fill="white"/>
<path d="M3.32873 38.5843L30.4425 25.3911L36.1597 37.488L9.16374 50.6238C8.71078 50.8442 8.21944 50.9719 7.71782 50.9995C7.21621 51.0271 6.71415 50.9541 6.24036 50.7846C5.76657 50.6152 5.33035 50.3526 4.95663 50.012C4.58291 49.6714 4.27903 49.2594 4.06237 48.7995L1.59629 43.5815C1.17293 42.6858 1.11761 41.656 1.44251 40.7188C1.7674 39.7817 2.4459 39.0138 3.32873 38.5843Z" fill="white"/>
<path d="M37.8496 9.02605L38.531 8.47198L49.8441 11.9905L50.8475 14.0695L37.8496 9.02605Z" fill="white"/>
</g>
<g class="logo-text">
<path d="M125.287 26.8129V28.7799H120.926V38.0923C120.926 38.9324 121.087 39.5368 121.41 39.9056C121.733 40.254 122.218 40.4384 122.864 40.4588C123.51 40.4588 124.318 40.4384 125.287 40.3974V42.18C123.127 42.5078 121.521 42.3541 120.471 41.7189C119.441 41.0633 118.927 39.8544 118.927 38.0923V28.7799H115.746V26.8129H118.927V23.1249L120.926 22.5102V26.8129H125.287Z" fill="white"/>
<path d="M107.013 26.4441C109.275 26.4441 111.082 27.2535 112.435 28.8721C113.828 30.4703 114.525 32.3656 114.525 34.5579C114.525 34.6604 114.505 34.9779 114.464 35.5107H101.167C101.369 37.0474 102.015 38.2767 103.106 39.1988C104.196 40.1208 105.559 40.5818 107.195 40.5818C109.497 40.5818 111.122 39.711 112.071 37.9694L113.828 39.0143C113.162 40.1208 112.243 40.9916 111.072 41.6267C109.921 42.2414 108.618 42.5488 107.164 42.5488C104.782 42.5488 102.843 41.7907 101.349 40.2744C99.8546 38.7582 99.1074 36.8322 99.1074 34.4964C99.1074 32.1812 99.8445 30.2654 101.319 28.7492C102.793 27.2125 104.691 26.4441 107.013 26.4441ZM107.013 28.4111C105.438 28.4111 104.115 28.8824 103.045 29.8249C101.995 30.7674 101.369 32.007 101.167 33.5437H112.465C112.243 31.9045 111.627 30.6444 110.617 29.7634C109.567 28.8619 108.366 28.4111 107.013 28.4111Z" fill="white"/>
<path d="M90.2128 26.4441C92.0301 26.4441 93.474 27.0178 94.5442 28.1652C95.6144 29.2922 96.1495 30.8186 96.1495 32.7446V42.18H94.1504V32.7446C94.1504 31.3718 93.7869 30.3064 93.06 29.5483C92.3532 28.7902 91.3436 28.4111 90.031 28.4111C88.5166 28.4111 87.3151 28.8926 86.4266 29.8556C85.5583 30.8186 85.1241 32.2426 85.1241 34.1276V42.18H83.125V26.8129H85.1241V29.2102C86.2549 27.3662 87.9511 26.4441 90.2128 26.4441Z" fill="white"/>
<path d="M136.829 26.8562C138.505 26.8562 139.868 27.4197 140.918 28.5466C142.008 29.694 142.553 31.2512 142.553 33.2182V42.6535H138.646V33.7099C138.646 32.7059 138.373 31.9273 137.828 31.3741C137.303 30.8209 136.576 30.5443 135.647 30.5443C134.618 30.5443 133.8 30.8721 133.194 31.5278C132.608 32.163 132.316 33.1055 132.316 34.3553V42.6535H128.408V21.1397H132.316V29.0076C133.244 27.5734 134.749 26.8562 136.829 26.8562Z" fill="white"/>
<path d="M157.444 29.0998V27.2865H161.351V42.6535H157.444V40.8402C156.273 42.3359 154.627 43.0838 152.507 43.0838C150.488 43.0838 148.751 42.3052 147.297 40.748C145.863 39.1703 145.146 37.2443 145.146 34.97C145.146 32.7162 145.863 30.8004 147.297 29.2227C148.751 27.6451 150.488 26.8562 152.507 26.8562C154.627 26.8562 156.273 27.6041 157.444 29.0998ZM150.235 38.1049C151.023 38.904 152.022 39.3035 153.234 39.3035C154.445 39.3035 155.445 38.904 156.232 38.1049C157.04 37.2853 157.444 36.2403 157.444 34.97C157.444 33.6997 157.04 32.665 156.232 31.8659C155.445 31.0463 154.445 30.6365 153.234 30.6365C152.022 30.6365 151.023 31.0463 150.235 31.8659C149.448 32.665 149.054 33.6997 149.054 34.97C149.054 36.2403 149.448 37.2853 150.235 38.1049Z" fill="white"/>
<path d="M236.835 27.2865V29.9296C237.178 28.9666 237.764 28.2393 238.592 27.7475C239.42 27.2353 240.369 26.9792 241.439 26.9792V31.4049C240.248 31.2409 239.177 31.4868 238.228 32.1425C237.3 32.7776 236.835 33.8328 236.835 35.3081V42.6535H232.928V27.2865H236.835Z" fill="white"/>
<path d="M230.047 36.5989H218.628C219.133 38.5249 220.557 39.4879 222.899 39.4879C224.393 39.4879 225.524 38.9757 226.291 37.9512L229.442 39.7952C227.947 41.9876 225.746 43.0838 222.838 43.0838C220.334 43.0838 218.325 42.3154 216.811 40.7787C215.296 39.242 214.539 37.3058 214.539 34.97C214.539 32.6752 215.286 30.7492 216.78 29.192C218.255 27.6348 220.173 26.8562 222.536 26.8562C224.777 26.8562 226.604 27.6348 228.018 29.192C229.472 30.7492 230.199 32.6752 230.199 34.97C230.199 35.4003 230.148 35.9433 230.047 36.5989ZM218.568 33.5255H226.291C226.069 32.5215 225.615 31.7532 224.928 31.2205C224.262 30.6877 223.464 30.4214 222.536 30.4214C221.485 30.4214 220.617 30.698 219.931 31.2512C219.244 31.7839 218.79 32.542 218.568 33.5255Z" fill="white"/>
<path d="M206.283 26.8562C208.02 26.8562 209.403 27.4299 210.433 28.5773C211.483 29.7247 212.008 31.2614 212.008 33.1874V42.6535H208.101V33.464C208.101 32.542 207.879 31.8249 207.434 31.3127C206.99 30.8004 206.364 30.5443 205.556 30.5443C204.668 30.5443 203.971 30.8414 203.466 31.4356C202.982 32.0298 202.739 32.8903 202.739 34.0173V42.6535H198.832V33.464C198.832 32.542 198.61 31.8249 198.166 31.3127C197.721 30.8004 197.096 30.5443 196.288 30.5443C195.419 30.5443 194.723 30.8516 194.198 31.4663C193.693 32.0605 193.441 32.9108 193.441 34.0173V42.6535H189.533V27.2865H193.441V28.9154C194.349 27.5426 195.753 26.8562 197.651 26.8562C199.529 26.8562 200.902 27.5938 201.77 29.0691C202.76 27.5938 204.264 26.8562 206.283 26.8562Z" fill="white"/>
<path d="M180.49 26.8562C182.227 26.8562 183.61 27.4299 184.64 28.5773C185.69 29.7247 186.215 31.2614 186.215 33.1874V42.6535H182.308V33.464C182.308 32.542 182.086 31.8249 181.641 31.3127C181.197 30.8004 180.571 30.5443 179.763 30.5443C178.875 30.5443 178.178 30.8414 177.673 31.4356C177.189 32.0298 176.947 32.8903 176.947 34.0173V42.6535H173.039V33.464C173.039 32.542 172.817 31.8249 172.373 31.3127C171.929 30.8004 171.303 30.5443 170.495 30.5443C169.627 30.5443 168.93 30.8516 168.405 31.4663C167.9 32.0605 167.648 32.9108 167.648 34.0173V42.6535H163.74V27.2865H167.648V28.9154C168.556 27.5426 169.96 26.8562 171.858 26.8562C173.736 26.8562 175.109 27.5938 175.977 29.0691C176.967 27.5938 178.471 26.8562 180.49 26.8562Z" fill="white"/>
<path d="M254.984 42.7835V34.5698H255.917V37.6018H255.996C256.065 37.4949 256.16 37.3585 256.281 37.1928C256.405 37.0243 256.581 36.8746 256.81 36.7436C257.042 36.6099 257.356 36.5431 257.751 36.5431C258.262 36.5431 258.713 36.6727 259.103 36.9321C259.493 37.1914 259.797 37.5591 260.016 38.035C260.235 38.5109 260.344 39.0724 260.344 39.7194C260.344 40.3718 260.235 40.9373 260.016 41.4159C259.797 41.8918 259.494 42.2608 259.107 42.5228C258.72 42.7822 258.273 42.9119 257.767 42.9119C257.377 42.9119 257.065 42.8464 256.83 42.7153C256.596 42.5817 256.415 42.4306 256.289 42.2621C256.162 42.091 256.065 41.9493 255.996 41.837H255.886V42.7835H254.984ZM255.901 39.7034C255.901 40.1686 255.969 40.579 256.103 40.9346C256.237 41.2876 256.434 41.5643 256.692 41.7648C256.95 41.9627 257.266 42.0616 257.641 42.0616C258.031 42.0616 258.356 41.9573 258.617 41.7488C258.88 41.5376 259.078 41.2542 259.21 40.8985C259.344 40.5403 259.411 40.1419 259.411 39.7034C259.411 39.2703 259.345 38.8799 259.214 38.5323C259.085 38.182 258.888 37.9053 258.625 37.7021C258.364 37.4962 258.036 37.3933 257.641 37.3933C257.261 37.3933 256.942 37.4909 256.684 37.6861C256.426 37.8786 256.231 38.1486 256.099 38.4962C255.967 38.8411 255.901 39.2435 255.901 39.7034Z" fill="white"/>
<path d="M250.374 42.9279C249.989 42.9279 249.64 42.8544 249.326 42.7073C249.013 42.5576 248.764 42.3424 248.579 42.0616C248.395 41.7782 248.303 41.436 248.303 41.0349C248.303 40.682 248.371 40.3959 248.508 40.1766C248.645 39.9547 248.828 39.7809 249.058 39.6553C249.287 39.5296 249.54 39.436 249.817 39.3745C250.096 39.3104 250.377 39.2596 250.658 39.2221C251.027 39.174 251.326 39.1379 251.556 39.1138C251.788 39.0871 251.956 39.043 252.062 38.9815C252.17 38.92 252.224 38.813 252.224 38.6606V38.6286C252.224 38.2328 252.117 37.9254 251.904 37.7061C251.693 37.4869 251.373 37.3773 250.943 37.3773C250.498 37.3773 250.149 37.4762 249.896 37.674C249.643 37.8719 249.465 38.0831 249.362 38.3077L248.477 37.9869C248.635 37.6125 248.846 37.3211 249.109 37.1126C249.375 36.9013 249.665 36.7543 249.979 36.6714C250.295 36.5858 250.606 36.5431 250.911 36.5431C251.106 36.5431 251.33 36.5671 251.583 36.6152C251.839 36.6607 252.085 36.7556 252.323 36.9C252.562 37.0444 252.761 37.2623 252.919 37.5537C253.077 37.8452 253.157 38.2355 253.157 38.7248V42.7835H252.224V41.9493H252.176C252.113 42.083 252.008 42.2261 251.86 42.3785C251.713 42.5309 251.516 42.6605 251.271 42.7675C251.026 42.8744 250.727 42.9279 250.374 42.9279ZM250.516 42.0777C250.885 42.0777 251.196 42.0041 251.449 41.8571C251.705 41.71 251.897 41.5202 252.026 41.2876C252.158 41.055 252.224 40.8103 252.224 40.5536V39.6874C252.184 39.7355 252.097 39.7796 251.963 39.8197C251.831 39.8571 251.678 39.8906 251.504 39.92C251.333 39.9467 251.166 39.9708 251.002 39.9922C250.842 40.0109 250.711 40.0269 250.611 40.0403C250.369 40.0724 250.142 40.1245 249.931 40.1967C249.723 40.2662 249.554 40.3718 249.425 40.5135C249.299 40.6526 249.236 40.8424 249.236 41.083C249.236 41.4119 249.355 41.6606 249.595 41.829C249.838 41.9948 250.145 42.0777 250.516 42.0777Z" fill="white"/>
<path d="M246.877 34.5698V42.7835H245.945V34.5698H246.877Z" fill="white"/>
<path d="M262.15 42.31V41.1795H263.264V42.31H262.15Z" fill="white"/>
</g>
</svg>
