<svg xmlns="http://www.w3.org/2000/svg" width="70" height="53" viewBox="0 0 70 53" fill="none">
<g class="logo-icon">
<path d="M55.0459 5.27545L37.9362 0L22.6094 10.2762L42.1786 49.8516C42.1786 49.8516 60.3804 49.2976 69.822 36.1184L55.0459 5.27545ZM45.1889 44.5809L29.1807 11.8011L38.893 5.41752L51.6342 9.44278L64.0907 34.7167C64.0907 34.7167 59.2883 42.4925 45.1889 44.5762V44.5809Z" fill="white"/>
<path d="M3.32873 38.5843L30.4425 25.3911L36.1597 37.488L9.16374 50.6238C8.71078 50.8442 8.21944 50.9719 7.71782 50.9995C7.21621 51.0271 6.71415 50.9541 6.24036 50.7846C5.76657 50.6152 5.33035 50.3526 4.95663 50.012C4.58291 49.6714 4.27903 49.2594 4.06237 48.7995L1.59629 43.5815C1.17293 42.6858 1.11761 41.656 1.44251 40.7188C1.7674 39.7817 2.4459 39.0138 3.32873 38.5843Z" fill="white"/>
<path d="M37.8496 9.02605L38.531 8.47198L49.8441 11.9905L50.8475 14.0695L37.8496 9.02605Z" fill="white"/>
</g>

</svg>